<svg width="16" height="16" viewBox="0 0 16 16" fill="none" xmlns="http://www.w3.org/2000/svg">
<path d="M7.9996 13.3653C8.75638 13.3653 9.44757 13.2829 10.078 13.1405L8.67238 11.7349C8.45399 11.7517 8.23239 11.7653 7.9996 11.7653C3.7189 11.7653 2.06054 8.6886 1.65895 7.76542C1.9605 7.09248 2.36777 6.47212 2.86532 5.92786L1.74695 4.80949C0.516576 6.14306 0.0501866 7.48622 0.0413868 7.51262C-0.0137956 7.67691 -0.0137956 7.85473 0.0413868 8.01901C0.0581865 8.07181 1.89334 13.3653 7.9996 13.3653ZM7.9996 2.16555C6.53003 2.16555 5.32286 2.48234 4.31649 2.95033L1.36536 0L0.234182 1.13117L14.6338 15.5308L15.765 14.3997L13.1099 11.7445C15.201 10.1838 15.9474 8.05261 15.9586 8.01901C16.0138 7.85473 16.0138 7.67691 15.9586 7.51262C15.941 7.45902 14.1059 2.16555 7.9996 2.16555ZM11.9771 10.6118L10.1532 8.78779C10.3051 8.4758 10.3995 8.13261 10.3995 7.76542C10.3995 6.45265 9.31237 5.36547 7.9996 5.36547C7.63241 5.36547 7.28922 5.45987 6.97802 5.61267L5.53166 4.1663C6.32565 3.89384 7.16019 3.75831 7.9996 3.76551C12.2803 3.76551 13.9387 6.84224 14.3403 7.76542C14.0987 8.319 13.4075 9.63897 11.9771 10.6118Z" fill="#4D432A"/>
</svg>
