<svg width="16" height="12" viewBox="0 0 16 12" fill="none" xmlns="http://www.w3.org/2000/svg">
<path d="M8.00002 3.18281C7.36821 3.18698 6.76346 3.43982 6.31669 3.88659C5.86992 4.33336 5.61709 4.93811 5.61292 5.56992C5.61292 6.87647 6.69348 7.95703 8.00002 7.95703C9.30577 7.95703 10.3871 6.87647 10.3871 5.56992C10.3871 4.26417 9.30577 3.18281 8.00002 3.18281Z" fill="#4D432A"/>
<path d="M8 0C1.9264 0 0.101054 5.26517 0.0843446 5.31848L0 5.56992L0.0835489 5.82136C0.101054 5.87468 1.9264 11.1398 8 11.1398C14.0736 11.1398 15.8989 5.87468 15.9157 5.82136L16 5.56992L15.9164 5.31848C15.8989 5.26517 14.0736 0 8 0ZM8 9.54844C3.74219 9.54844 2.0927 6.48816 1.69326 5.56992C2.09429 4.6485 3.74458 1.59141 8 1.59141C12.2578 1.59141 13.9073 4.65168 14.3067 5.56992C13.9057 6.49135 12.2554 9.54844 8 9.54844Z" fill="#4D432A"/>
</svg>
